   0
SECTION
   2
ENTITIES
  0
CIRCLE
  8
RSPLASMA
  6
CONTINUOUS
 62
7
 10
-311.84390242
 20
116.70041258
 30
0.00000000
 40
1.00000000
  0
CIRCLE
  8
RSPLASMA
  6
CONTINUOUS
 62
7
 10
-317.84390242
 20
116.70041258
 30
0.00000000
 40
1.00000000
  0
LINE
  8
RSPLASMA
  6
CONTINUOUS
 62
7
 10
-500.71890242
 20
111.37941258
 30
0.00000000
 11
-475.71890279
 21
111.37941258
 31
0.00000000
  0
LINE
  8
RSPLASMA
  6
CONTINUOUS
 62
7
 10
-475.71890279
 20
111.37941258
 30
0.00000000
 11
-470.94747354
 21
109.64275499
 31
0.00000000
  0
LINE
  8
REFERENCEBEAM
  6
CONTINUOUS
 62
9
 10
-119.96889959
 20
109.34041277
 30
0.00000000
 11
-119.96889959
 21
109.20041226
 31
0.00000000
  0
LINE
  8
REFERENCEBEAM
  6
CONTINUOUS
 62
9
 10
-119.96889959
 20
109.20041226
 30
0.00000000
 11
-500.71890242
 21
109.20041226
 31
0.00000000
  0
LINE
  8
REFERENCEBEAM
  6
CONTINUOUS
 62
9
 10
-119.96889959
 20
109.42341283
 30
0.00000000
 11
-119.96889959
 21
109.34041277
 31
0.00000000
  0
LINE
  8
REFERENCEBEAM
  6
CONTINUOUS
 62
9
 10
-119.96889959
 20
119.20041258
 30
0.00000000
 11
-119.96889959
 21
119.06041257
 31
0.00000000
  0
LINE
  8
REFERENCEBEAM
  6
CONTINUOUS
 62
9
 10
-500.71890242
 20
119.20041258
 30
0.00000000
 11
-500.71890242
 21
119.06041257
 31
0.00000000
  0
LINE
  8
REFERENCEBEAM
  6
CONTINUOUS
 62
9
 10
-119.96889959
 20
119.06041257
 30
0.00000000
 11
-119.96889959
 21
118.97741257
 31
0.00000000
  0
LINE
  8
REFERENCEBEAM
  6
CONTINUOUS
 62
9
 10
-500.71890242
 20
119.06041257
 30
0.00000000
 11
-500.71890242
 21
118.97741257
 31
0.00000000
  0
LINE
  8
REFERENCEBEAM
  6
CONTINUOUS
 62
9
 10
-119.96889959
 20
118.97741257
 30
0.00000000
 11
-119.96889959
 21
118.75807025
 31
0.00000000
  0
LINE
  8
REFERENCEBEAM
  6
CONTINUOUS
 62
9
 10
-500.71890242
 20
118.97741257
 30
0.00000000
 11
-500.71890242
 21
118.75807025
 31
0.00000000
  0
LINE
  8
REFERENCEBEAM
  6
CONTINUOUS
 62
9
 10
-119.96889959
 20
109.64275499
 30
0.00000000
 11
-119.96889959
 21
109.42341283
 31
0.00000000
  0
LINE
  8
REFERENCEBEAM
  6
CONTINUOUS
 62
9
 10
-119.96889959
 20
118.75807025
 30
0.00000000
 11
-119.96889959
 21
109.64275499
 31
0.00000000
  0
LINE
  8
REFERENCEBEAM
  6
CONTINUOUS
 62
9
 10
-500.71890242
 20
118.75807025
 30
0.00000000
 11
-500.71890242
 21
109.20041226
 31
0.00000000
  0
LINE
  8
REFERENCEBEAM
  6
CONTINUOUS
 62
9
 10
-119.96889959
 20
119.20041258
 30
0.00000000
 11
-500.71890242
 21
119.20041258
 31
0.00000000
  0
LINE
  8
Info
  6
CONTINUOUS
 62
11
 10
-533.39626368
 20
114.78776229
 30
0.00000000
 11
-532.76813868
 21
113.78776229
 31
0.00000000
  0
LINE
  8
Info
  6
CONTINUOUS
 62
11
 10
-533.81813868
 20
113.78776229
 30
0.00000000
 11
-533.81813868
 21
115.78776229
 31
0.00000000
  0
LINE
  8
Info
  6
CONTINUOUS
 62
11
 10
-533.81813868
 20
115.78776229
 30
0.00000000
 11
-533.14313868
 21
115.78776229
 31
0.00000000
  0
LINE
  8
Info
  6
CONTINUOUS
 62
11
 10
-533.14313868
 20
115.78776229
 30
0.00000000
 11
-533.01188868
 21
115.75026229
 31
0.00000000
  0
LINE
  8
Info
  6
CONTINUOUS
 62
11
 10
-533.01188868
 20
115.75026229
 30
0.00000000
 11
-532.89938868
 21
115.67526229
 31
0.00000000
  0
LINE
  8
Info
  6
CONTINUOUS
 62
11
 10
-532.89938868
 20
115.67526229
 30
0.00000000
 11
-532.81501368
 21
115.53776229
 31
0.00000000
  0
LINE
  8
Info
  6
CONTINUOUS
 62
11
 10
-532.81501368
 20
115.53776229
 30
0.00000000
 11
-532.77751368
 21
115.37526229
 31
0.00000000
  0
LINE
  8
Info
  6
CONTINUOUS
 62
11
 10
-532.77751368
 20
115.37526229
 30
0.00000000
 11
-532.77751368
 21
115.20026229
 31
0.00000000
  0
LINE
  8
Info
  6
CONTINUOUS
 62
11
 10
-532.77751368
 20
115.20026229
 30
0.00000000
 11
-532.81501368
 21
115.03776229
 31
0.00000000
  0
LINE
  8
Info
  6
CONTINUOUS
 62
11
 10
-532.81501368
 20
115.03776229
 30
0.00000000
 11
-532.89938868
 21
114.90026229
 31
0.00000000
  0
LINE
  8
Info
  6
CONTINUOUS
 62
11
 10
-532.89938868
 20
114.90026229
 30
0.00000000
 11
-533.01188868
 21
114.82526229
 31
0.00000000
  0
LINE
  8
Info
  6
CONTINUOUS
 62
11
 10
-533.01188868
 20
114.82526229
 30
0.00000000
 11
-533.14313868
 21
114.78776229
 31
0.00000000
  0
LINE
  8
Info
  6
CONTINUOUS
 62
11
 10
-533.14313868
 20
114.78776229
 30
0.00000000
 11
-533.81813868
 21
114.78776229
 31
0.00000000
  0
LINE
  8
Info
  6
CONTINUOUS
 62
11
 10
-530.99626368
 20
115.48776229
 30
0.00000000
 11
-531.05251368
 21
115.61276229
 31
0.00000000
  0
LINE
  8
Info
  6
CONTINUOUS
 62
11
 10
-531.05251368
 20
115.61276229
 30
0.00000000
 11
-531.13688868
 21
115.71276229
 31
0.00000000
  0
LINE
  8
Info
  6
CONTINUOUS
 62
11
 10
-531.13688868
 20
115.71276229
 30
0.00000000
 11
-531.23063868
 21
115.76276229
 31
0.00000000
  0
LINE
  8
Info
  6
CONTINUOUS
 62
11
 10
-531.23063868
 20
115.76276229
 30
0.00000000
 11
-531.34313868
 21
115.78776229
 31
0.00000000
  0
LINE
  8
Info
  6
CONTINUOUS
 62
11
 10
-531.34313868
 20
115.78776229
 30
0.00000000
 11
-531.69938868
 21
115.78776229
 31
0.00000000
  0
LINE
  8
Info
  6
CONTINUOUS
 62
11
 10
-531.69938868
 20
115.78776229
 30
0.00000000
 11
-531.81188868
 21
115.76276229
 31
0.00000000
  0
LINE
  8
Info
  6
CONTINUOUS
 62
11
 10
-531.81188868
 20
115.76276229
 30
0.00000000
 11
-531.90563868
 21
115.68776229
 31
0.00000000
  0
LINE
  8
Info
  6
CONTINUOUS
 62
11
 10
-531.90563868
 20
115.68776229
 30
0.00000000
 11
-531.98063868
 21
115.56276229
 31
0.00000000
  0
LINE
  8
Info
  6
CONTINUOUS
 62
11
 10
-531.98063868
 20
115.56276229
 30
0.00000000
 11
-532.01813868
 21
115.43776229
 31
0.00000000
  0
LINE
  8
Info
  6
CONTINUOUS
 62
11
 10
-532.01813868
 20
115.43776229
 30
0.00000000
 11
-532.01813868
 21
115.28776229
 31
0.00000000
  0
LINE
  8
Info
  6
CONTINUOUS
 62
11
 10
-532.01813868
 20
115.28776229
 30
0.00000000
 11
-531.98063868
 21
115.15026229
 31
0.00000000
  0
LINE
  8
Info
  6
CONTINUOUS
 62
11
 10
-531.98063868
 20
115.15026229
 30
0.00000000
 11
-531.90563868
 21
115.03776229
 31
0.00000000
  0
LINE
  8
Info
  6
CONTINUOUS
 62
11
 10
-531.90563868
 20
115.03776229
 30
0.00000000
 11
-531.80251368
 21
114.96276229
 31
0.00000000
  0
LINE
  8
Info
  6
CONTINUOUS
 62
11
 10
-531.80251368
 20
114.96276229
 30
0.00000000
 11
-531.18376368
 21
114.66276229
 31
0.00000000
  0
LINE
  8
Info
  6
CONTINUOUS
 62
11
 10
-531.18376368
 20
114.66276229
 30
0.00000000
 11
-531.08063868
 21
114.57526229
 31
0.00000000
  0
LINE
  8
Info
  6
CONTINUOUS
 62
11
 10
-531.08063868
 20
114.57526229
 30
0.00000000
 11
-531.00563868
 21
114.46276229
 31
0.00000000
  0
LINE
  8
Info
  6
CONTINUOUS
 62
11
 10
-531.00563868
 20
114.46276229
 30
0.00000000
 11
-530.96813868
 21
114.32526229
 31
0.00000000
  0
LINE
  8
Info
  6
CONTINUOUS
 62
11
 10
-530.96813868
 20
114.32526229
 30
0.00000000
 11
-530.96813868
 21
114.15026229
 31
0.00000000
  0
LINE
  8
Info
  6
CONTINUOUS
 62
11
 10
-530.96813868
 20
114.15026229
 30
0.00000000
 11
-531.00563868
 21
114.01276229
 31
0.00000000
  0
LINE
  8
Info
  6
CONTINUOUS
 62
11
 10
-531.00563868
 20
114.01276229
 30
0.00000000
 11
-531.08063868
 21
113.88776229
 31
0.00000000
  0
LINE
  8
Info
  6
CONTINUOUS
 62
11
 10
-531.08063868
 20
113.88776229
 30
0.00000000
 11
-531.17438868
 21
113.81276229
 31
0.00000000
  0
LINE
  8
Info
  6
CONTINUOUS
 62
11
 10
-531.17438868
 20
113.81276229
 30
0.00000000
 11
-531.28688868
 21
113.78776229
 31
0.00000000
  0
LINE
  8
Info
  6
CONTINUOUS
 62
11
 10
-531.28688868
 20
113.78776229
 30
0.00000000
 11
-531.64313868
 21
113.78776229
 31
0.00000000
  0
LINE
  8
Info
  6
CONTINUOUS
 62
11
 10
-531.64313868
 20
113.78776229
 30
0.00000000
 11
-531.75563868
 21
113.81276229
 31
0.00000000
  0
LINE
  8
Info
  6
CONTINUOUS
 62
11
 10
-531.75563868
 20
113.81276229
 30
0.00000000
 11
-531.84938868
 21
113.86276229
 31
0.00000000
  0
LINE
  8
Info
  6
CONTINUOUS
 62
11
 10
-531.84938868
 20
113.86276229
 30
0.00000000
 11
-531.93376368
 21
113.96276229
 31
0.00000000
  0
LINE
  8
Info
  6
CONTINUOUS
 62
11
 10
-531.93376368
 20
113.96276229
 30
0.00000000
 11
-531.99001368
 21
114.08776229
 31
0.00000000
  0
LINE
  8
Info
  6
CONTINUOUS
 62
11
 10
-531.99001368
 20
114.08776229
 30
0.00000000
 11
-532.00876368
 21
114.23776229
 31
0.00000000
  0
LINE
  8
Info
  6
CONTINUOUS
 62
11
 10
-528.41813868
 20
113.78776229
 30
0.00000000
 11
-528.41813868
 21
115.78776229
 31
0.00000000
  0
LINE
  8
Info
  6
CONTINUOUS
 62
11
 10
-528.41813868
 20
115.78776229
 30
0.00000000
 11
-527.74313868
 21
115.78776229
 31
0.00000000
  0
LINE
  8
Info
  6
CONTINUOUS
 62
11
 10
-527.74313868
 20
115.78776229
 30
0.00000000
 11
-527.61188868
 21
115.75026229
 31
0.00000000
  0
LINE
  8
Info
  6
CONTINUOUS
 62
11
 10
-527.61188868
 20
115.75026229
 30
0.00000000
 11
-527.49938868
 21
115.67526229
 31
0.00000000
  0
LINE
  8
Info
  6
CONTINUOUS
 62
11
 10
-527.49938868
 20
115.67526229
 30
0.00000000
 11
-527.41501368
 21
115.53776229
 31
0.00000000
  0
LINE
  8
Info
  6
CONTINUOUS
 62
11
 10
-527.41501368
 20
115.53776229
 30
0.00000000
 11
-527.37751368
 21
115.37526229
 31
0.00000000
  0
LINE
  8
Info
  6
CONTINUOUS
 62
11
 10
-527.37751368
 20
115.37526229
 30
0.00000000
 11
-527.37751368
 21
115.20026229
 31
0.00000000
  0
LINE
  8
Info
  6
CONTINUOUS
 62
11
 10
-527.37751368
 20
115.20026229
 30
0.00000000
 11
-527.41501368
 21
115.03776229
 31
0.00000000
  0
LINE
  8
Info
  6
CONTINUOUS
 62
11
 10
-527.41501368
 20
115.03776229
 30
0.00000000
 11
-527.49938868
 21
114.90026229
 31
0.00000000
  0
LINE
  8
Info
  6
CONTINUOUS
 62
11
 10
-527.49938868
 20
114.90026229
 30
0.00000000
 11
-527.61188868
 21
114.82526229
 31
0.00000000
  0
LINE
  8
Info
  6
CONTINUOUS
 62
11
 10
-527.61188868
 20
114.82526229
 30
0.00000000
 11
-527.74313868
 21
114.78776229
 31
0.00000000
  0
LINE
  8
Info
  6
CONTINUOUS
 62
11
 10
-527.74313868
 20
114.78776229
 30
0.00000000
 11
-528.41813868
 21
114.78776229
 31
0.00000000
  0
LINE
  8
Info
  6
CONTINUOUS
 62
11
 10
-526.18688868
 20
115.78776229
 30
0.00000000
 11
-526.18688868
 21
113.78776229
 31
0.00000000
  0
LINE
  8
Info
  6
CONTINUOUS
 62
11
 10
-523.87126368
 20
114.55026229
 30
0.00000000
 11
-523.94626368
 21
114.86276229
 31
0.00000000
  0
LINE
  8
Info
  6
CONTINUOUS
 62
11
 10
-523.94626368
 20
114.86276229
 30
0.00000000
 11
-524.15251368
 21
115.06276229
 31
0.00000000
  0
LINE
  8
Info
  6
CONTINUOUS
 62
11
 10
-524.15251368
 20
115.06276229
 30
0.00000000
 11
-524.40563868
 21
115.06276229
 31
0.00000000
  0
LINE
  8
Info
  6
CONTINUOUS
 62
11
 10
-524.40563868
 20
115.06276229
 30
0.00000000
 11
-524.61188868
 21
114.86276229
 31
0.00000000
  0
LINE
  8
Info
  6
CONTINUOUS
 62
11
 10
-524.61188868
 20
114.86276229
 30
0.00000000
 11
-524.68688868
 21
114.55026229
 31
0.00000000
  0
LINE
  8
Info
  6
CONTINUOUS
 62
11
 10
-524.68688868
 20
114.55026229
 30
0.00000000
 11
-524.68688868
 21
114.33776229
 31
0.00000000
  0
LINE
  8
Info
  6
CONTINUOUS
 62
11
 10
-524.68688868
 20
114.33776229
 30
0.00000000
 11
-524.61188868
 21
114.01276229
 31
0.00000000
  0
LINE
  8
Info
  6
CONTINUOUS
 62
11
 10
-524.61188868
 20
114.01276229
 30
0.00000000
 11
-524.40563868
 21
113.81276229
 31
0.00000000
  0
LINE
  8
Info
  6
CONTINUOUS
 62
11
 10
-524.40563868
 20
113.81276229
 30
0.00000000
 11
-524.15251368
 21
113.81276229
 31
0.00000000
  0
LINE
  8
Info
  6
CONTINUOUS
 62
11
 10
-524.15251368
 20
113.81276229
 30
0.00000000
 11
-523.94626368
 21
114.01276229
 31
0.00000000
  0
LINE
  8
Info
  6
CONTINUOUS
 62
11
 10
-523.94626368
 20
114.01276229
 30
0.00000000
 11
-523.87126368
 21
114.33776229
 31
0.00000000
  0
LINE
  8
Info
  6
CONTINUOUS
 62
11
 10
-523.87126368
 20
113.78776229
 30
0.00000000
 11
-523.87126368
 21
115.08776229
 31
0.00000000
  0
LINE
  8
Info
  6
CONTINUOUS
 62
11
 10
-522.16501368
 20
114.91276229
 30
0.00000000
 11
-522.24938868
 21
115.03776229
 31
0.00000000
  0
LINE
  8
Info
  6
CONTINUOUS
 62
11
 10
-522.24938868
 20
115.03776229
 30
0.00000000
 11
-522.37126368
 21
115.08776229
 31
0.00000000
  0
LINE
  8
Info
  6
CONTINUOUS
 62
11
 10
-522.37126368
 20
115.08776229
 30
0.00000000
 11
-522.62438868
 21
115.08776229
 31
0.00000000
  0
LINE
  8
Info
  6
CONTINUOUS
 62
11
 10
-522.62438868
 20
115.08776229
 30
0.00000000
 11
-522.74626368
 21
115.03776229
 31
0.00000000
  0
LINE
  8
Info
  6
CONTINUOUS
 62
11
 10
-522.74626368
 20
115.03776229
 30
0.00000000
 11
-522.83063868
 21
114.91276229
 31
0.00000000
  0
LINE
  8
Info
  6
CONTINUOUS
 62
11
 10
-522.83063868
 20
114.91276229
 30
0.00000000
 11
-522.84938868
 21
114.73776229
 31
0.00000000
  0
LINE
  8
Info
  6
CONTINUOUS
 62
11
 10
-522.84938868
 20
114.73776229
 30
0.00000000
 11
-522.78376368
 21
114.58776229
 31
0.00000000
  0
LINE
  8
Info
  6
CONTINUOUS
 62
11
 10
-522.78376368
 20
114.58776229
 30
0.00000000
 11
-522.68063868
 21
114.50026229
 31
0.00000000
  0
LINE
  8
Info
  6
CONTINUOUS
 62
11
 10
-522.68063868
 20
114.50026229
 30
0.00000000
 11
-522.30563868
 21
114.37526229
 31
0.00000000
  0
LINE
  8
Info
  6
CONTINUOUS
 62
11
 10
-522.30563868
 20
114.37526229
 30
0.00000000
 11
-522.20251368
 21
114.28776229
 31
0.00000000
  0
LINE
  8
Info
  6
CONTINUOUS
 62
11
 10
-522.20251368
 20
114.28776229
 30
0.00000000
 11
-522.13688868
 21
114.13776229
 31
0.00000000
  0
LINE
  8
Info
  6
CONTINUOUS
 62
11
 10
-522.13688868
 20
114.13776229
 30
0.00000000
 11
-522.15563868
 21
113.96276229
 31
0.00000000
  0
LINE
  8
Info
  6
CONTINUOUS
 62
11
 10
-522.15563868
 20
113.96276229
 30
0.00000000
 11
-522.24001368
 21
113.83776229
 31
0.00000000
  0
LINE
  8
Info
  6
CONTINUOUS
 62
11
 10
-522.24001368
 20
113.83776229
 30
0.00000000
 11
-522.36188868
 21
113.78776229
 31
0.00000000
  0
LINE
  8
Info
  6
CONTINUOUS
 62
11
 10
-522.36188868
 20
113.78776229
 30
0.00000000
 11
-522.61501368
 21
113.78776229
 31
0.00000000
  0
LINE
  8
Info
  6
CONTINUOUS
 62
11
 10
-522.61501368
 20
113.78776229
 30
0.00000000
 11
-522.74626368
 21
113.83776229
 31
0.00000000
  0
LINE
  8
Info
  6
CONTINUOUS
 62
11
 10
-522.74626368
 20
113.83776229
 30
0.00000000
 11
-522.83063868
 21
113.97526229
 31
0.00000000
  0
LINE
  8
Info
  6
CONTINUOUS
 62
11
 10
-521.21813868
 20
115.08776229
 30
0.00000000
 11
-521.21813868
 21
113.78776229
 31
0.00000000
  0
LINE
  8
Info
  6
CONTINUOUS
 62
11
 10
-521.21813868
 20
114.73776229
 30
0.00000000
 11
-521.14313868
 21
114.98776229
 31
0.00000000
  0
LINE
  8
Info
  6
CONTINUOUS
 62
11
 10
-521.14313868
 20
114.98776229
 30
0.00000000
 11
-520.95563868
 21
115.08776229
 31
0.00000000
  0
LINE
  8
Info
  6
CONTINUOUS
 62
11
 10
-520.95563868
 20
115.08776229
 30
0.00000000
 11
-520.76813868
 21
114.98776229
 31
0.00000000
  0
LINE
  8
Info
  6
CONTINUOUS
 62
11
 10
-520.76813868
 20
114.98776229
 30
0.00000000
 11
-520.69313868
 21
114.73776229
 31
0.00000000
  0
LINE
  8
Info
  6
CONTINUOUS
 62
11
 10
-520.69313868
 20
114.73776229
 30
0.00000000
 11
-520.61813868
 21
114.98776229
 31
0.00000000
  0
LINE
  8
Info
  6
CONTINUOUS
 62
11
 10
-520.61813868
 20
114.98776229
 30
0.00000000
 11
-520.43063868
 21
115.08776229
 31
0.00000000
  0
LINE
  8
Info
  6
CONTINUOUS
 62
11
 10
-520.43063868
 20
115.08776229
 30
0.00000000
 11
-520.24313868
 21
114.98776229
 31
0.00000000
  0
LINE
  8
Info
  6
CONTINUOUS
 62
11
 10
-520.24313868
 20
114.98776229
 30
0.00000000
 11
-520.16813868
 21
114.73776229
 31
0.00000000
  0
LINE
  8
Info
  6
CONTINUOUS
 62
11
 10
-520.16813868
 20
114.73776229
 30
0.00000000
 11
-520.16813868
 21
113.78776229
 31
0.00000000
  0
LINE
  8
Info
  6
CONTINUOUS
 62
11
 10
-520.69313868
 20
114.73776229
 30
0.00000000
 11
-520.69313868
 21
113.78776229
 31
0.00000000
  0
LINE
  8
Info
  6
CONTINUOUS
 62
11
 10
-518.47126368
 20
114.55026229
 30
0.00000000
 11
-518.54626368
 21
114.86276229
 31
0.00000000
  0
LINE
  8
Info
  6
CONTINUOUS
 62
11
 10
-518.54626368
 20
114.86276229
 30
0.00000000
 11
-518.75251368
 21
115.06276229
 31
0.00000000
  0
LINE
  8
Info
  6
CONTINUOUS
 62
11
 10
-518.75251368
 20
115.06276229
 30
0.00000000
 11
-519.00563868
 21
115.06276229
 31
0.00000000
  0
LINE
  8
Info
  6
CONTINUOUS
 62
11
 10
-519.00563868
 20
115.06276229
 30
0.00000000
 11
-519.21188868
 21
114.86276229
 31
0.00000000
  0
LINE
  8
Info
  6
CONTINUOUS
 62
11
 10
-519.21188868
 20
114.86276229
 30
0.00000000
 11
-519.28688868
 21
114.55026229
 31
0.00000000
  0
LINE
  8
Info
  6
CONTINUOUS
 62
11
 10
-519.28688868
 20
114.55026229
 30
0.00000000
 11
-519.28688868
 21
114.33776229
 31
0.00000000
  0
LINE
  8
Info
  6
CONTINUOUS
 62
11
 10
-519.28688868
 20
114.33776229
 30
0.00000000
 11
-519.21188868
 21
114.01276229
 31
0.00000000
  0
LINE
  8
Info
  6
CONTINUOUS
 62
11
 10
-519.21188868
 20
114.01276229
 30
0.00000000
 11
-519.00563868
 21
113.81276229
 31
0.00000000
  0
LINE
  8
Info
  6
CONTINUOUS
 62
11
 10
-519.00563868
 20
113.81276229
 30
0.00000000
 11
-518.75251368
 21
113.81276229
 31
0.00000000
  0
LINE
  8
Info
  6
CONTINUOUS
 62
11
 10
-518.75251368
 20
113.81276229
 30
0.00000000
 11
-518.54626368
 21
114.01276229
 31
0.00000000
  0
LINE
  8
Info
  6
CONTINUOUS
 62
11
 10
-518.54626368
 20
114.01276229
 30
0.00000000
 11
-518.47126368
 21
114.33776229
 31
0.00000000
  0
LINE
  8
Info
  6
CONTINUOUS
 62
11
 10
-518.47126368
 20
113.78776229
 30
0.00000000
 11
-518.47126368
 21
115.08776229
 31
0.00000000
  0
LINE
  8
Info
  6
CONTINUOUS
 62
11
 10
-514.76813868
 20
115.28776229
 30
0.00000000
 11
-514.78688868
 21
115.43776229
 31
0.00000000
  0
LINE
  8
Info
  6
CONTINUOUS
 62
11
 10
-514.78688868
 20
115.43776229
 30
0.00000000
 11
-514.83376368
 21
115.57526229
 31
0.00000000
  0
LINE
  8
Info
  6
CONTINUOUS
 62
11
 10
-514.83376368
 20
115.57526229
 30
0.00000000
 11
-514.90876368
 21
115.68776229
 31
0.00000000
  0
LINE
  8
Info
  6
CONTINUOUS
 62
11
 10
-514.90876368
 20
115.68776229
 30
0.00000000
 11
-515.01188868
 21
115.75026229
 31
0.00000000
  0
LINE
  8
Info
  6
CONTINUOUS
 62
11
 10
-515.01188868
 20
115.75026229
 30
0.00000000
 11
-515.12438868
 21
115.78776229
 31
0.00000000
  0
LINE
  8
Info
  6
CONTINUOUS
 62
11
 10
-515.12438868
 20
115.78776229
 30
0.00000000
 11
-515.46188868
 21
115.78776229
 31
0.00000000
  0
LINE
  8
Info
  6
CONTINUOUS
 62
11
 10
-515.46188868
 20
115.78776229
 30
0.00000000
 11
-515.57438868
 21
115.75026229
 31
0.00000000
  0
LINE
  8
Info
  6
CONTINUOUS
 62
11
 10
-515.57438868
 20
115.75026229
 30
0.00000000
 11
-515.67751368
 21
115.68776229
 31
0.00000000
  0
LINE
  8
Info
  6
CONTINUOUS
 62
11
 10
-515.67751368
 20
115.68776229
 30
0.00000000
 11
-515.75251368
 21
115.57526229
 31
0.00000000
  0
LINE
  8
Info
  6
CONTINUOUS
 62
11
 10
-515.75251368
 20
115.57526229
 30
0.00000000
 11
-515.79938868
 21
115.43776229
 31
0.00000000
  0
LINE
  8
Info
  6
CONTINUOUS
 62
11
 10
-515.79938868
 20
115.43776229
 30
0.00000000
 11
-515.81813868
 21
115.28776229
 31
0.00000000
  0
LINE
  8
Info
  6
CONTINUOUS
 62
11
 10
-515.81813868
 20
115.28776229
 30
0.00000000
 11
-515.81813868
 21
114.28776229
 31
0.00000000
  0
LINE
  8
Info
  6
CONTINUOUS
 62
11
 10
-515.81813868
 20
114.28776229
 30
0.00000000
 11
-515.79938868
 21
114.13776229
 31
0.00000000
  0
LINE
  8
Info
  6
CONTINUOUS
 62
11
 10
-515.79938868
 20
114.13776229
 30
0.00000000
 11
-515.75251368
 21
114.00026229
 31
0.00000000
  0
LINE
  8
Info
  6
CONTINUOUS
 62
11
 10
-515.75251368
 20
114.00026229
 30
0.00000000
 11
-515.67751368
 21
113.88776229
 31
0.00000000
  0
LINE
  8
Info
  6
CONTINUOUS
 62
11
 10
-515.67751368
 20
113.88776229
 30
0.00000000
 11
-515.57438868
 21
113.81276229
 31
0.00000000
  0
LINE
  8
Info
  6
CONTINUOUS
 62
11
 10
-515.57438868
 20
113.81276229
 30
0.00000000
 11
-515.46188868
 21
113.78776229
 31
0.00000000
  0
LINE
  8
Info
  6
CONTINUOUS
 62
11
 10
-515.46188868
 20
113.78776229
 30
0.00000000
 11
-515.12438868
 21
113.78776229
 31
0.00000000
  0
LINE
  8
Info
  6
CONTINUOUS
 62
11
 10
-515.12438868
 20
113.78776229
 30
0.00000000
 11
-515.01188868
 21
113.81276229
 31
0.00000000
  0
LINE
  8
Info
  6
CONTINUOUS
 62
11
 10
-515.01188868
 20
113.81276229
 30
0.00000000
 11
-514.90876368
 21
113.88776229
 31
0.00000000
  0
LINE
  8
Info
  6
CONTINUOUS
 62
11
 10
-514.90876368
 20
113.88776229
 30
0.00000000
 11
-514.83376368
 21
114.00026229
 31
0.00000000
  0
LINE
  8
Info
  6
CONTINUOUS
 62
11
 10
-514.83376368
 20
114.00026229
 30
0.00000000
 11
-514.78688868
 21
114.13776229
 31
0.00000000
  0
LINE
  8
Info
  6
CONTINUOUS
 62
11
 10
-514.78688868
 20
114.13776229
 30
0.00000000
 11
-514.76813868
 21
114.28776229
 31
0.00000000
  0
LINE
  8
Info
  6
CONTINUOUS
 62
11
 10
-513.88688868
 20
115.08776229
 30
0.00000000
 11
-513.88688868
 21
114.31276229
 31
0.00000000
  0
LINE
  8
Info
  6
CONTINUOUS
 62
11
 10
-513.88688868
 20
114.31276229
 30
0.00000000
 11
-513.81188868
 21
114.00026229
 31
0.00000000
  0
LINE
  8
Info
  6
CONTINUOUS
 62
11
 10
-513.81188868
 20
114.00026229
 30
0.00000000
 11
-513.61501368
 21
113.81276229
 31
0.00000000
  0
LINE
  8
Info
  6
CONTINUOUS
 62
11
 10
-513.61501368
 20
113.81276229
 30
0.00000000
 11
-513.37126368
 21
113.81276229
 31
0.00000000
  0
LINE
  8
Info
  6
CONTINUOUS
 62
11
 10
-513.37126368
 20
113.81276229
 30
0.00000000
 11
-513.17438868
 21
114.00026229
 31
0.00000000
  0
LINE
  8
Info
  6
CONTINUOUS
 62
11
 10
-513.17438868
 20
114.00026229
 30
0.00000000
 11
-513.09938868
 21
114.31276229
 31
0.00000000
  0
LINE
  8
Info
  6
CONTINUOUS
 62
11
 10
-513.09938868
 20
115.08776229
 30
0.00000000
 11
-513.09938868
 21
113.78776229
 31
0.00000000
  0
LINE
  8
Info
  6
CONTINUOUS
 62
11
 10
-511.78688868
 20
113.78776229
 30
0.00000000
 11
-511.78688868
 21
115.78776229
 31
0.00000000
  0
LINE
  8
Info
  6
CONTINUOUS
 62
11
 10
-512.08688868
 20
115.08776229
 30
0.00000000
 11
-511.31813868
 21
115.08776229
 31
0.00000000
  0
LINE
  8
Info
  6
CONTINUOUS
 62
11
 10
-509.98688868
 20
113.78776229
 30
0.00000000
 11
-509.98688868
 21
115.78776229
 31
0.00000000
  0
LINE
  8
Info
  6
CONTINUOUS
 62
11
 10
-510.28688868
 20
115.08776229
 30
0.00000000
 11
-509.51813868
 21
115.08776229
 31
0.00000000
  0
LINE
  8
Info
  6
CONTINUOUS
 62
11
 10
-508.09313868
 20
115.78776229
 30
0.00000000
 11
-508.09313868
 21
115.48776229
 31
0.00000000
  0
LINE
  8
Info
  6
CONTINUOUS
 62
11
 10
-508.09313868
 20
115.08776229
 30
0.00000000
 11
-508.09313868
 21
113.78776229
 31
0.00000000
  0
LINE
  8
Info
  6
CONTINUOUS
 62
11
 10
-506.68688868
 20
115.08776229
 30
0.00000000
 11
-506.68688868
 21
113.78776229
 31
0.00000000
  0
LINE
  8
Info
  6
CONTINUOUS
 62
11
 10
-506.68688868
 20
114.56276229
 30
0.00000000
 11
-506.61188868
 21
114.87526229
 31
0.00000000
  0
LINE
  8
Info
  6
CONTINUOUS
 62
11
 10
-506.61188868
 20
114.87526229
 30
0.00000000
 11
-506.41501368
 21
115.06276229
 31
0.00000000
  0
LINE
  8
Info
  6
CONTINUOUS
 62
11
 10
-506.41501368
 20
115.06276229
 30
0.00000000
 11
-506.17126368
 21
115.06276229
 31
0.00000000
  0
LINE
  8
Info
  6
CONTINUOUS
 62
11
 10
-506.17126368
 20
115.06276229
 30
0.00000000
 11
-505.97438868
 21
114.87526229
 31
0.00000000
  0
LINE
  8
Info
  6
CONTINUOUS
 62
11
 10
-505.97438868
 20
114.87526229
 30
0.00000000
 11
-505.89938868
 21
114.56276229
 31
0.00000000
  0
LINE
  8
Info
  6
CONTINUOUS
 62
11
 10
-505.89938868
 20
114.56276229
 30
0.00000000
 11
-505.89938868
 21
113.78776229
 31
0.00000000
  0
LINE
  8
Info
  6
CONTINUOUS
 62
11
 10
-504.09938868
 20
114.56276229
 30
0.00000000
 11
-504.17438868
 21
114.87526229
 31
0.00000000
  0
LINE
  8
Info
  6
CONTINUOUS
 62
11
 10
-504.17438868
 20
114.87526229
 30
0.00000000
 11
-504.37126368
 21
115.06276229
 31
0.00000000
  0
LINE
  8
Info
  6
CONTINUOUS
 62
11
 10
-504.37126368
 20
115.06276229
 30
0.00000000
 11
-504.61501368
 21
115.06276229
 31
0.00000000
  0
LINE
  8
Info
  6
CONTINUOUS
 62
11
 10
-504.61501368
 20
115.06276229
 30
0.00000000
 11
-504.81188868
 21
114.87526229
 31
0.00000000
  0
LINE
  8
Info
  6
CONTINUOUS
 62
11
 10
-504.81188868
 20
114.87526229
 30
0.00000000
 11
-504.88688868
 21
114.56276229
 31
0.00000000
  0
LINE
  8
Info
  6
CONTINUOUS
 62
11
 10
-504.88688868
 20
114.56276229
 30
0.00000000
 11
-504.88688868
 21
114.31276229
 31
0.00000000
  0
LINE
  8
Info
  6
CONTINUOUS
 62
11
 10
-504.88688868
 20
114.31276229
 30
0.00000000
 11
-504.81188868
 21
114.00026229
 31
0.00000000
  0
LINE
  8
Info
  6
CONTINUOUS
 62
11
 10
-504.81188868
 20
114.00026229
 30
0.00000000
 11
-504.61501368
 21
113.81276229
 31
0.00000000
  0
LINE
  8
Info
  6
CONTINUOUS
 62
11
 10
-504.61501368
 20
113.81276229
 30
0.00000000
 11
-504.37126368
 21
113.81276229
 31
0.00000000
  0
LINE
  8
Info
  6
CONTINUOUS
 62
11
 10
-504.37126368
 20
113.81276229
 30
0.00000000
 11
-504.17438868
 21
114.00026229
 31
0.00000000
  0
LINE
  8
Info
  6
CONTINUOUS
 62
11
 10
-504.17438868
 20
114.00026229
 30
0.00000000
 11
-504.09938868
 21
114.31276229
 31
0.00000000
  0
LINE
  8
Info
  6
CONTINUOUS
 62
11
 10
-504.09938868
 20
115.08776229
 30
0.00000000
 11
-504.09938868
 21
113.51276229
 31
0.00000000
  0
LINE
  8
Info
  6
CONTINUOUS
 62
11
 10
-504.09938868
 20
113.51276229
 30
0.00000000
 11
-504.15563868
 21
113.23776229
 31
0.00000000
  0
LINE
  8
Info
  6
CONTINUOUS
 62
11
 10
-504.15563868
 20
113.23776229
 30
0.00000000
 11
-504.30563868
 21
113.05026229
 31
0.00000000
  0
LINE
  8
Info
  6
CONTINUOUS
 62
11
 10
-504.30563868
 20
113.05026229
 30
0.00000000
 11
-504.51188868
 21
112.98776229
 31
0.00000000
  0
LINE
  8
Info
  6
CONTINUOUS
 62
11
 10
-504.51188868
 20
112.98776229
 30
0.00000000
 11
-504.70876368
 21
113.07526229
 31
0.00000000
  0
LINE
  8
Info
  6
CONTINUOUS
 62
11
 10
-504.70876368
 20
113.07526229
 30
0.00000000
 11
-504.84938868
 21
113.28776229
 31
0.00000000
   0
ENDSEC
   0
EOF
