   0
SECTION
   2
ENTITIES
  0
LINE
  8
REFERENCE
  6
CONTINUOUS
 62
9
 10
-120.12663241
 20
119.20041226
 30
0.00000000
 11
-120.12663241
 21
119.06041226
 31
0.00000000
  0
LINE
  8
CSPLASMA
  6
CONTINUOUS
 62
7
 10
-470.27452595
 20
119.06041226
 30
0.00000000
 11
-469.88987912
 21
119.20041226
 31
0.00000000
  0
LINE
  8
REFERENCE
  6
CONTINUOUS
 62
9
 10
-120.12663241
 20
119.20041226
 30
0.00000000
 11
-500.87663241
 21
119.20041226
 31
0.00000000
  0
LINE
  8
REFERENCE
  6
CONTINUOUS
 62
9
 10
-120.12663241
 20
119.06041226
 30
0.00000000
 11
-120.12663241
 21
118.97741226
 31
0.00000000
  0
LINE
  8
CSPLASMA
  6
CONTINUOUS
 62
7
 10
-470.27452595
 20
119.06041226
 30
0.00000000
 11
-470.50256658
 21
118.97741226
 31
0.00000000
  0
LINE
  8
REFERENCE
  6
CONTINUOUS
 62
9
 10
-500.87663241
 20
109.42341226
 30
0.00000000
 11
-500.87663241
 21
109.34041226
 31
0.00000000
  0
LINE
  8
REFERENCE
  6
CONTINUOUS
 62
9
 10
-120.12663241
 20
109.42341226
 30
0.00000000
 11
-120.12663241
 21
109.34041226
 31
0.00000000
  0
LINE
  8
REFERENCE
  6
CONTINUOUS
 62
9
 10
-120.12663241
 20
109.20041226
 30
0.00000000
 11
-500.87663241
 21
109.20041226
 31
0.00000000
  0
LINE
  8
REFERENCE
  6
CONTINUOUS
 62
9
 10
-500.87663241
 20
109.34041226
 30
0.00000000
 11
-500.87663241
 21
109.20041226
 31
0.00000000
  0
LINE
  8
REFERENCE
  6
CONTINUOUS
 62
9
 10
-120.12663241
 20
109.34041226
 30
0.00000000
 11
-120.12663241
 21
109.20041226
 31
0.00000000
  0
LINE
  8
REFERENCE
  6
CONTINUOUS
 62
9
 10
-120.12663241
 20
118.97741226
 30
0.00000000
 11
-120.12663241
 21
118.75806995
 31
0.00000000
  0
LINE
  8
CSPLASMA
  6
CONTINUOUS
 62
7
 10
-470.50256658
 20
118.97741226
 30
0.00000000
 11
-471.10520463
 21
118.75806995
 31
0.00000000
  0
LINE
  8
REFERENCE
  6
CONTINUOUS
 62
9
 10
-500.87663241
 20
109.64275457
 30
0.00000000
 11
-500.87663241
 21
109.42341226
 31
0.00000000
  0
LINE
  8
REFERENCE
  6
CONTINUOUS
 62
9
 10
-120.12663241
 20
109.64275457
 30
0.00000000
 11
-120.12663241
 21
109.42341226
 31
0.00000000
  0
LINE
  8
CSPLASMA
  6
CONTINUOUS
 62
7
 10
-475.87663241
 20
117.02141226
 30
0.00000000
 11
-500.87663241
 21
117.02141226
 31
0.00000000
  0
ARC
  8
CSPLASMA
  6
CONTINUOUS
 62
7
 10
-313.75163241
 20
112.11541226
 30
0.00000000
 40
1.25000000
 50
180.00000000
 51
360.00000000
  0
LINE
  8
CSPLASMA
  6
CONTINUOUS
 62
7
 10
-312.50163241
 20
112.61541226
 30
0.00000000
 11
-312.50163241
 21
112.11541226
 31
0.00000000
  0
ARC
  8
CSPLASMA
  6
CONTINUOUS
 62
7
 10
-313.75163241
 20
112.61541226
 30
0.00000000
 40
1.25000000
 50
0.00000000
 51
180.00000000
  0
LINE
  8
CSPLASMA
  6
CONTINUOUS
 62
7
 10
-315.00163241
 20
112.11541226
 30
0.00000000
 11
-315.00163241
 21
112.61541226
 31
0.00000000
  0
CIRCLE
  8
CSPLASMA
  6
CONTINUOUS
 62
7
 10
-458.00163241
 20
113.95041226
 30
0.00000000
 40
0.75000000
  0
ARC
  8
CSPLASMA
  6
CONTINUOUS
 62
7
 10
-193.25213234
 20
112.67541226
 30
0.00000000
 40
0.06300000
 50
180.00000000
 51
270.00000000
  0
LINE
  8
CSPLASMA
  6
CONTINUOUS
 62
7
 10
-193.31513234
 20
113.57541226
 30
0.00000000
 11
-193.31513234
 21
112.67541226
 31
0.00000000
  0
ARC
  8
CSPLASMA
  6
CONTINUOUS
 62
7
 10
-193.44013234
 20
113.57541226
 30
0.00000000
 40
0.12500000
 50
0.00000000
 51
90.00000000
  0
LINE
  8
CSPLASMA
  6
CONTINUOUS
 62
7
 10
-193.87663241
 20
113.70041226
 30
0.00000000
 11
-193.44013234
 21
113.70041226
 31
0.00000000
  0
ARC
  8
CSPLASMA
  6
CONTINUOUS
 62
7
 10
-193.87663241
 20
113.82541226
 30
0.00000000
 40
0.12500000
 50
180.00000000
 51
270.00000000
  0
LINE
  8
CSPLASMA
  6
CONTINUOUS
 62
7
 10
-194.00163241
 20
114.07541226
 30
0.00000000
 11
-194.00163241
 21
113.82541226
 31
0.00000000
  0
ARC
  8
CSPLASMA
  6
CONTINUOUS
 62
7
 10
-194.12663241
 20
114.07541226
 30
0.00000000
 40
0.12500000
 50
0.00000000
 51
90.00000000
  0
LINE
  8
CSPLASMA
  6
CONTINUOUS
 62
7
 10
-195.12663241
 20
114.20041226
 30
0.00000000
 11
-194.12663241
 21
114.20041226
 31
0.00000000
  0
ARC
  8
CSPLASMA
  6
CONTINUOUS
 62
7
 10
-195.12663241
 20
114.07541226
 30
0.00000000
 40
0.12500000
 50
90.00000000
 51
180.00000000
  0
LINE
  8
CSPLASMA
  6
CONTINUOUS
 62
7
 10
-195.25163241
 20
113.82541226
 30
0.00000000
 11
-195.25163241
 21
114.07541226
 31
0.00000000
  0
ARC
  8
CSPLASMA
  6
CONTINUOUS
 62
7
 10
-195.37663241
 20
113.82541226
 30
0.00000000
 40
0.12500000
 50
270.00000000
 51
360.00000000
  0
LINE
  8
CSPLASMA
  6
CONTINUOUS
 62
7
 10
-195.81313249
 20
113.70041226
 30
0.00000000
 11
-195.37663241
 21
113.70041226
 31
0.00000000
  0
ARC
  8
CSPLASMA
  6
CONTINUOUS
 62
7
 10
-195.81313249
 20
113.57541226
 30
0.00000000
 40
0.12500000
 50
90.00000000
 51
180.00000000
  0
LINE
  8
CSPLASMA
  6
CONTINUOUS
 62
7
 10
-195.93813249
 20
112.67541226
 30
0.00000000
 11
-195.93813249
 21
113.57541226
 31
0.00000000
  0
ARC
  8
CSPLASMA
  6
CONTINUOUS
 62
7
 10
-196.00113249
 20
112.67541226
 30
0.00000000
 40
0.06300000
 50
270.00000000
 51
360.00000000
  0
LINE
  8
CSPLASMA
  6
CONTINUOUS
 62
7
 10
-196.18813234
 20
112.61241226
 30
0.00000000
 11
-196.00113249
 21
112.61241226
 31
0.00000000
  0
ARC
  8
CSPLASMA
  6
CONTINUOUS
 62
7
 10
-196.18813234
 20
112.54941226
 30
0.00000000
 40
0.06300000
 50
90.00000000
 51
180.00000000
  0
LINE
  8
CSPLASMA
  6
CONTINUOUS
 62
7
 10
-196.25113234
 20
112.17541226
 30
0.00000000
 11
-196.25113234
 21
112.54941226
 31
0.00000000
  0
ARC
  8
CSPLASMA
  6
CONTINUOUS
 62
7
 10
-196.18813234
 20
112.17541226
 30
0.00000000
 40
0.06300000
 50
180.00000000
 51
270.00000000
  0
LINE
  8
CSPLASMA
  6
CONTINUOUS
 62
7
 10
-196.00113234
 20
112.11241226
 30
0.00000000
 11
-196.18813234
 21
112.11241226
 31
0.00000000
  0
ARC
  8
CSPLASMA
  6
CONTINUOUS
 62
7
 10
-196.00113234
 20
112.04941226
 30
0.00000000
 40
0.06300000
 50
0.00000000
 51
90.00000000
  0
LINE
  8
CSPLASMA
  6
CONTINUOUS
 62
7
 10
-195.93813234
 20
111.32541226
 30
0.00000000
 11
-195.93813234
 21
112.04941226
 31
0.00000000
  0
ARC
  8
CSPLASMA
  6
CONTINUOUS
 62
7
 10
-195.81313234
 20
111.32541226
 30
0.00000000
 40
0.12500000
 50
180.00000000
 51
270.00000000
  0
LINE
  8
CSPLASMA
  6
CONTINUOUS
 62
7
 10
-195.00213234
 20
111.20041226
 30
0.00000000
 11
-195.81313234
 21
111.20041226
 31
0.00000000
  0
ARC
  8
CSPLASMA
  6
CONTINUOUS
 62
7
 10
-195.00213234
 20
111.13741226
 30
0.00000000
 40
0.06300000
 50
0.00000000
 51
90.00000000
  0
LINE
  8
CSPLASMA
  6
CONTINUOUS
 62
7
 10
-194.93913234
 20
111.01341226
 30
0.00000000
 11
-194.93913234
 21
111.13741226
 31
0.00000000
  0
ARC
  8
CSPLASMA
  6
CONTINUOUS
 62
7
 10
-194.87613234
 20
111.01341226
 30
0.00000000
 40
0.06300000
 50
180.00000000
 51
270.00000000
  0
LINE
  8
CSPLASMA
  6
CONTINUOUS
 62
7
 10
-194.37713234
 20
110.95041226
 30
0.00000000
 11
-194.87613234
 21
110.95041226
 31
0.00000000
  0
ARC
  8
CSPLASMA
  6
CONTINUOUS
 62
7
 10
-194.37713234
 20
111.01341226
 30
0.00000000
 40
0.06300000
 50
270.00000000
 51
360.00000000
  0
LINE
  8
CSPLASMA
  6
CONTINUOUS
 62
7
 10
-194.31413234
 20
111.13741226
 30
0.00000000
 11
-194.31413234
 21
111.01341226
 31
0.00000000
  0
ARC
  8
CSPLASMA
  6
CONTINUOUS
 62
7
 10
-194.25113234
 20
111.13741226
 30
0.00000000
 40
0.06300000
 50
90.00000000
 51
180.00000000
  0
LINE
  8
CSPLASMA
  6
CONTINUOUS
 62
7
 10
-193.44013234
 20
111.20041226
 30
0.00000000
 11
-194.25113234
 21
111.20041226
 31
0.00000000
  0
ARC
  8
CSPLASMA
  6
CONTINUOUS
 62
7
 10
-193.44013234
 20
111.32541226
 30
0.00000000
 40
0.12500000
 50
270.00000000
 51
360.00000000
  0
LINE
  8
CSPLASMA
  6
CONTINUOUS
 62
7
 10
-193.31513234
 20
112.04941226
 30
0.00000000
 11
-193.31513234
 21
111.32541226
 31
0.00000000
  0
ARC
  8
CSPLASMA
  6
CONTINUOUS
 62
7
 10
-193.25213234
 20
112.04941226
 30
0.00000000
 40
0.06300000
 50
90.00000000
 51
180.00000000
  0
LINE
  8
CSPLASMA
  6
CONTINUOUS
 62
7
 10
-193.06513234
 20
112.11241226
 30
0.00000000
 11
-193.25213234
 21
112.11241226
 31
0.00000000
  0
ARC
  8
CSPLASMA
  6
CONTINUOUS
 62
7
 10
-193.06513234
 20
112.17541226
 30
0.00000000
 40
0.06300000
 50
270.00000000
 51
360.00000000
  0
LINE
  8
CSPLASMA
  6
CONTINUOUS
 62
7
 10
-193.00213234
 20
112.54941226
 30
0.00000000
 11
-193.00213234
 21
112.17541226
 31
0.00000000
  0
ARC
  8
CSPLASMA
  6
CONTINUOUS
 62
7
 10
-193.06513234
 20
112.54941226
 30
0.00000000
 40
0.06300000
 50
0.00000000
 51
90.00000000
  0
LINE
  8
CSPLASMA
  6
CONTINUOUS
 62
7
 10
-193.25213234
 20
112.61241226
 30
0.00000000
 11
-193.06513234
 21
112.61241226
 31
0.00000000
  0
ARC
  8
CSPLASMA
  6
CONTINUOUS
 62
7
 10
-307.75163241
 20
111.26291226
 30
0.00000000
 40
0.06250000
 50
270.00000000
 51
360.00000000
  0
LINE
  8
CSPLASMA
  6
CONTINUOUS
 62
7
 10
-307.68913241
 20
112.51291226
 30
0.00000000
 11
-307.68913241
 21
111.26291226
 31
0.00000000
  0
ARC
  8
CSPLASMA
  6
CONTINUOUS
 62
7
 10
-307.62663241
 20
112.51291226
 30
0.00000000
 40
0.06250000
 50
90.00000000
 51
180.00000000
  0
LINE
  8
CSPLASMA
  6
CONTINUOUS
 62
7
 10
-307.50163241
 20
112.57541226
 30
0.00000000
 11
-307.62663241
 21
112.57541226
 31
0.00000000
  0
ARC
  8
CSPLASMA
  6
CONTINUOUS
 62
7
 10
-307.50163241
 20
112.63791226
 30
0.00000000
 40
0.06250000
 50
270.00000000
 51
360.00000000
  0
LINE
  8
CSPLASMA
  6
CONTINUOUS
 62
7
 10
-307.43913241
 20
113.82591226
 30
0.00000000
 11
-307.43913241
 21
112.63791226
 31
0.00000000
  0
ARC
  8
CSPLASMA
  6
CONTINUOUS
 62
7
 10
-307.50163241
 20
113.82591226
 30
0.00000000
 40
0.06250000
 50
0.00000000
 51
90.00000000
  0
LINE
  8
CSPLASMA
  6
CONTINUOUS
 62
7
 10
-307.69713241
 20
113.88841226
 30
0.00000000
 11
-307.50163241
 21
113.88841226
 31
0.00000000
  0
ARC
  8
CSPLASMA
  6
CONTINUOUS
 62
7
 10
-307.69713241
 20
114.13841226
 30
0.00000000
 40
0.25000000
 50
180.00000000
 51
270.00000000
  0
LINE
  8
CSPLASMA
  6
CONTINUOUS
 62
7
 10
-307.94713241
 20
114.45091226
 30
0.00000000
 11
-307.94713241
 21
114.13841226
 31
0.00000000
  0
ARC
  8
CSPLASMA
  6
CONTINUOUS
 62
7
 10
-308.00963241
 20
114.45091226
 30
0.00000000
 40
0.06250000
 50
0.00000000
 51
90.00000000
  0
LINE
  8
CSPLASMA
  6
CONTINUOUS
 62
7
 10
-309.99363241
 20
114.51341226
 30
0.00000000
 11
-308.00963241
 21
114.51341226
 31
0.00000000
  0
ARC
  8
CSPLASMA
  6
CONTINUOUS
 62
7
 10
-309.99363241
 20
114.45091226
 30
0.00000000
 40
0.06250000
 50
90.00000000
 51
180.00000000
  0
LINE
  8
CSPLASMA
  6
CONTINUOUS
 62
7
 10
-310.05613241
 20
114.13841226
 30
0.00000000
 11
-310.05613241
 21
114.45091226
 31
0.00000000
  0
ARC
  8
CSPLASMA
  6
CONTINUOUS
 62
7
 10
-310.30613241
 20
114.13841226
 30
0.00000000
 40
0.25000000
 50
270.00000000
 51
360.00000000
  0
LINE
  8
CSPLASMA
  6
CONTINUOUS
 62
7
 10
-310.50163241
 20
113.88841226
 30
0.00000000
 11
-310.30613241
 21
113.88841226
 31
0.00000000
  0
ARC
  8
CSPLASMA
  6
CONTINUOUS
 62
7
 10
-310.50163241
 20
113.82591226
 30
0.00000000
 40
0.06250000
 50
90.00000000
 51
180.00000000
  0
LINE
  8
CSPLASMA
  6
CONTINUOUS
 62
7
 10
-310.56413241
 20
112.63791226
 30
0.00000000
 11
-310.56413241
 21
113.82591226
 31
0.00000000
  0
ARC
  8
CSPLASMA
  6
CONTINUOUS
 62
7
 10
-310.50163241
 20
112.63791226
 30
0.00000000
 40
0.06250000
 50
180.00000000
 51
270.00000000
  0
LINE
  8
CSPLASMA
  6
CONTINUOUS
 62
7
 10
-310.37663241
 20
112.57541226
 30
0.00000000
 11
-310.50163241
 21
112.57541226
 31
0.00000000
  0
ARC
  8
CSPLASMA
  6
CONTINUOUS
 62
7
 10
-310.37663241
 20
112.51291226
 30
0.00000000
 40
0.06250000
 50
0.00000000
 51
90.00000000
  0
LINE
  8
CSPLASMA
  6
CONTINUOUS
 62
7
 10
-310.31413241
 20
111.26291226
 30
0.00000000
 11
-310.31413241
 21
112.51291226
 31
0.00000000
  0
ARC
  8
CSPLASMA
  6
CONTINUOUS
 62
7
 10
-310.25163241
 20
111.26291226
 30
0.00000000
 40
0.06250000
 50
180.00000000
 51
270.00000000
  0
LINE
  8
CSPLASMA
  6
CONTINUOUS
 62
7
 10
-309.65813241
 20
111.20041226
 30
0.00000000
 11
-310.25163241
 21
111.20041226
 31
0.00000000
  0
ARC
  8
CSPLASMA
  6
CONTINUOUS
 62
7
 10
-309.65813241
 20
111.13791226
 30
0.00000000
 40
0.06250000
 50
0.00000000
 51
90.00000000
  0
LINE
  8
CSPLASMA
  6
CONTINUOUS
 62
7
 10
-309.59563241
 20
111.01291226
 30
0.00000000
 11
-309.59563241
 21
111.13791226
 31
0.00000000
  0
ARC
  8
CSPLASMA
  6
CONTINUOUS
 62
7
 10
-309.53313241
 20
111.01291226
 30
0.00000000
 40
0.06250000
 50
180.00000000
 51
270.00000000
  0
LINE
  8
CSPLASMA
  6
CONTINUOUS
 62
7
 10
-308.47013241
 20
110.95041226
 30
0.00000000
 11
-309.53313241
 21
110.95041226
 31
0.00000000
  0
ARC
  8
CSPLASMA
  6
CONTINUOUS
 62
7
 10
-308.47013241
 20
111.01291226
 30
0.00000000
 40
0.06250000
 50
270.00000000
 51
360.00000000
  0
LINE
  8
CSPLASMA
  6
CONTINUOUS
 62
7
 10
-308.40763241
 20
111.13791226
 30
0.00000000
 11
-308.40763241
 21
111.01291226
 31
0.00000000
  0
ARC
  8
CSPLASMA
  6
CONTINUOUS
 62
7
 10
-308.34513241
 20
111.13791226
 30
0.00000000
 40
0.06250000
 50
90.00000000
 51
180.00000000
  0
LINE
  8
CSPLASMA
  6
CONTINUOUS
 62
7
 10
-307.75163241
 20
111.20041226
 30
0.00000000
 11
-308.34513241
 21
111.20041226
 31
0.00000000
  0
LINE
  8
REFERENCE
  6
CONTINUOUS
 62
9
 10
-500.87663241
 20
119.20041226
 30
0.00000000
 11
-500.87663241
 21
109.64275457
 31
0.00000000
  0
LINE
  8
REFERENCE
  6
CONTINUOUS
 62
9
 10
-120.12663241
 20
118.75806995
 30
0.00000000
 11
-120.12663241
 21
109.64275457
 31
0.00000000
  0
LINE
  8
CSPLASMA
  6
CONTINUOUS
 62
7
 10
-471.10520463
 20
118.75806995
 30
0.00000000
 11
-475.87663241
 21
117.02141226
 31
0.00000000
  0
LINE
  8
Info
  6
CONTINUOUS
 62
11
 10
-532.92586867
 20
115.28776229
 30
0.00000000
 11
-532.94461867
 21
115.43776229
 31
0.00000000
  0
LINE
  8
Info
  6
CONTINUOUS
 62
11
 10
-532.94461867
 20
115.43776229
 30
0.00000000
 11
-532.99149367
 21
115.57526229
 31
0.00000000
  0
LINE
  8
Info
  6
CONTINUOUS
 62
11
 10
-532.99149367
 20
115.57526229
 30
0.00000000
 11
-533.06649367
 21
115.68776229
 31
0.00000000
  0
LINE
  8
Info
  6
CONTINUOUS
 62
11
 10
-533.06649367
 20
115.68776229
 30
0.00000000
 11
-533.16961867
 21
115.75026229
 31
0.00000000
  0
LINE
  8
Info
  6
CONTINUOUS
 62
11
 10
-533.16961867
 20
115.75026229
 30
0.00000000
 11
-533.28211867
 21
115.78776229
 31
0.00000000
  0
LINE
  8
Info
  6
CONTINUOUS
 62
11
 10
-533.28211867
 20
115.78776229
 30
0.00000000
 11
-533.61961867
 21
115.78776229
 31
0.00000000
  0
LINE
  8
Info
  6
CONTINUOUS
 62
11
 10
-533.61961867
 20
115.78776229
 30
0.00000000
 11
-533.73211867
 21
115.75026229
 31
0.00000000
  0
LINE
  8
Info
  6
CONTINUOUS
 62
11
 10
-533.73211867
 20
115.75026229
 30
0.00000000
 11
-533.83524367
 21
115.68776229
 31
0.00000000
  0
LINE
  8
Info
  6
CONTINUOUS
 62
11
 10
-533.83524367
 20
115.68776229
 30
0.00000000
 11
-533.91024367
 21
115.57526229
 31
0.00000000
  0
LINE
  8
Info
  6
CONTINUOUS
 62
11
 10
-533.91024367
 20
115.57526229
 30
0.00000000
 11
-533.95711867
 21
115.43776229
 31
0.00000000
  0
LINE
  8
Info
  6
CONTINUOUS
 62
11
 10
-533.95711867
 20
115.43776229
 30
0.00000000
 11
-533.97586867
 21
115.28776229
 31
0.00000000
  0
LINE
  8
Info
  6
CONTINUOUS
 62
11
 10
-533.97586867
 20
115.28776229
 30
0.00000000
 11
-533.97586867
 21
114.28776229
 31
0.00000000
  0
LINE
  8
Info
  6
CONTINUOUS
 62
11
 10
-533.97586867
 20
114.28776229
 30
0.00000000
 11
-533.95711867
 21
114.13776229
 31
0.00000000
  0
LINE
  8
Info
  6
CONTINUOUS
 62
11
 10
-533.95711867
 20
114.13776229
 30
0.00000000
 11
-533.91024367
 21
114.00026229
 31
0.00000000
  0
LINE
  8
Info
  6
CONTINUOUS
 62
11
 10
-533.91024367
 20
114.00026229
 30
0.00000000
 11
-533.83524367
 21
113.88776229
 31
0.00000000
  0
LINE
  8
Info
  6
CONTINUOUS
 62
11
 10
-533.83524367
 20
113.88776229
 30
0.00000000
 11
-533.73211867
 21
113.81276229
 31
0.00000000
  0
LINE
  8
Info
  6
CONTINUOUS
 62
11
 10
-533.73211867
 20
113.81276229
 30
0.00000000
 11
-533.61961867
 21
113.78776229
 31
0.00000000
  0
LINE
  8
Info
  6
CONTINUOUS
 62
11
 10
-533.61961867
 20
113.78776229
 30
0.00000000
 11
-533.28211867
 21
113.78776229
 31
0.00000000
  0
LINE
  8
Info
  6
CONTINUOUS
 62
11
 10
-533.28211867
 20
113.78776229
 30
0.00000000
 11
-533.16961867
 21
113.81276229
 31
0.00000000
  0
LINE
  8
Info
  6
CONTINUOUS
 62
11
 10
-533.16961867
 20
113.81276229
 30
0.00000000
 11
-533.06649367
 21
113.88776229
 31
0.00000000
  0
LINE
  8
Info
  6
CONTINUOUS
 62
11
 10
-533.06649367
 20
113.88776229
 30
0.00000000
 11
-532.99149367
 21
114.00026229
 31
0.00000000
  0
LINE
  8
Info
  6
CONTINUOUS
 62
11
 10
-532.99149367
 20
114.00026229
 30
0.00000000
 11
-532.94461867
 21
114.13776229
 31
0.00000000
  0
LINE
  8
Info
  6
CONTINUOUS
 62
11
 10
-532.94461867
 20
114.13776229
 30
0.00000000
 11
-532.92586867
 21
114.28776229
 31
0.00000000
  0
LINE
  8
Info
  6
CONTINUOUS
 62
11
 10
-531.15399367
 20
115.48776229
 30
0.00000000
 11
-531.21024367
 21
115.61276229
 31
0.00000000
  0
LINE
  8
Info
  6
CONTINUOUS
 62
11
 10
-531.21024367
 20
115.61276229
 30
0.00000000
 11
-531.29461867
 21
115.71276229
 31
0.00000000
  0
LINE
  8
Info
  6
CONTINUOUS
 62
11
 10
-531.29461867
 20
115.71276229
 30
0.00000000
 11
-531.38836867
 21
115.76276229
 31
0.00000000
  0
LINE
  8
Info
  6
CONTINUOUS
 62
11
 10
-531.38836867
 20
115.76276229
 30
0.00000000
 11
-531.50086867
 21
115.78776229
 31
0.00000000
  0
LINE
  8
Info
  6
CONTINUOUS
 62
11
 10
-531.50086867
 20
115.78776229
 30
0.00000000
 11
-531.85711867
 21
115.78776229
 31
0.00000000
  0
LINE
  8
Info
  6
CONTINUOUS
 62
11
 10
-531.85711867
 20
115.78776229
 30
0.00000000
 11
-531.96961867
 21
115.76276229
 31
0.00000000
  0
LINE
  8
Info
  6
CONTINUOUS
 62
11
 10
-531.96961867
 20
115.76276229
 30
0.00000000
 11
-532.06336867
 21
115.68776229
 31
0.00000000
  0
LINE
  8
Info
  6
CONTINUOUS
 62
11
 10
-532.06336867
 20
115.68776229
 30
0.00000000
 11
-532.13836867
 21
115.56276229
 31
0.00000000
  0
LINE
  8
Info
  6
CONTINUOUS
 62
11
 10
-532.13836867
 20
115.56276229
 30
0.00000000
 11
-532.17586867
 21
115.43776229
 31
0.00000000
  0
LINE
  8
Info
  6
CONTINUOUS
 62
11
 10
-532.17586867
 20
115.43776229
 30
0.00000000
 11
-532.17586867
 21
115.28776229
 31
0.00000000
  0
LINE
  8
Info
  6
CONTINUOUS
 62
11
 10
-532.17586867
 20
115.28776229
 30
0.00000000
 11
-532.13836867
 21
115.15026229
 31
0.00000000
  0
LINE
  8
Info
  6
CONTINUOUS
 62
11
 10
-532.13836867
 20
115.15026229
 30
0.00000000
 11
-532.06336867
 21
115.03776229
 31
0.00000000
  0
LINE
  8
Info
  6
CONTINUOUS
 62
11
 10
-532.06336867
 20
115.03776229
 30
0.00000000
 11
-531.96024367
 21
114.96276229
 31
0.00000000
  0
LINE
  8
Info
  6
CONTINUOUS
 62
11
 10
-531.96024367
 20
114.96276229
 30
0.00000000
 11
-531.34149367
 21
114.66276229
 31
0.00000000
  0
LINE
  8
Info
  6
CONTINUOUS
 62
11
 10
-531.34149367
 20
114.66276229
 30
0.00000000
 11
-531.23836867
 21
114.57526229
 31
0.00000000
  0
LINE
  8
Info
  6
CONTINUOUS
 62
11
 10
-531.23836867
 20
114.57526229
 30
0.00000000
 11
-531.16336867
 21
114.46276229
 31
0.00000000
  0
LINE
  8
Info
  6
CONTINUOUS
 62
11
 10
-531.16336867
 20
114.46276229
 30
0.00000000
 11
-531.12586867
 21
114.32526229
 31
0.00000000
  0
LINE
  8
Info
  6
CONTINUOUS
 62
11
 10
-531.12586867
 20
114.32526229
 30
0.00000000
 11
-531.12586867
 21
114.15026229
 31
0.00000000
  0
LINE
  8
Info
  6
CONTINUOUS
 62
11
 10
-531.12586867
 20
114.15026229
 30
0.00000000
 11
-531.16336867
 21
114.01276229
 31
0.00000000
  0
LINE
  8
Info
  6
CONTINUOUS
 62
11
 10
-531.16336867
 20
114.01276229
 30
0.00000000
 11
-531.23836867
 21
113.88776229
 31
0.00000000
  0
LINE
  8
Info
  6
CONTINUOUS
 62
11
 10
-531.23836867
 20
113.88776229
 30
0.00000000
 11
-531.33211867
 21
113.81276229
 31
0.00000000
  0
LINE
  8
Info
  6
CONTINUOUS
 62
11
 10
-531.33211867
 20
113.81276229
 30
0.00000000
 11
-531.44461867
 21
113.78776229
 31
0.00000000
  0
LINE
  8
Info
  6
CONTINUOUS
 62
11
 10
-531.44461867
 20
113.78776229
 30
0.00000000
 11
-531.80086867
 21
113.78776229
 31
0.00000000
  0
LINE
  8
Info
  6
CONTINUOUS
 62
11
 10
-531.80086867
 20
113.78776229
 30
0.00000000
 11
-531.91336867
 21
113.81276229
 31
0.00000000
  0
LINE
  8
Info
  6
CONTINUOUS
 62
11
 10
-531.91336867
 20
113.81276229
 30
0.00000000
 11
-532.00711867
 21
113.86276229
 31
0.00000000
  0
LINE
  8
Info
  6
CONTINUOUS
 62
11
 10
-532.00711867
 20
113.86276229
 30
0.00000000
 11
-532.09149367
 21
113.96276229
 31
0.00000000
  0
LINE
  8
Info
  6
CONTINUOUS
 62
11
 10
-532.09149367
 20
113.96276229
 30
0.00000000
 11
-532.14774367
 21
114.08776229
 31
0.00000000
  0
LINE
  8
Info
  6
CONTINUOUS
 62
11
 10
-532.14774367
 20
114.08776229
 30
0.00000000
 11
-532.16649367
 21
114.23776229
 31
0.00000000
  0
LINE
  8
Info
  6
CONTINUOUS
 62
11
 10
-528.57586867
 20
113.78776229
 30
0.00000000
 11
-528.57586867
 21
115.78776229
 31
0.00000000
  0
LINE
  8
Info
  6
CONTINUOUS
 62
11
 10
-528.57586867
 20
115.78776229
 30
0.00000000
 11
-527.90086867
 21
115.78776229
 31
0.00000000
  0
LINE
  8
Info
  6
CONTINUOUS
 62
11
 10
-527.90086867
 20
115.78776229
 30
0.00000000
 11
-527.76961867
 21
115.75026229
 31
0.00000000
  0
LINE
  8
Info
  6
CONTINUOUS
 62
11
 10
-527.76961867
 20
115.75026229
 30
0.00000000
 11
-527.65711867
 21
115.67526229
 31
0.00000000
  0
LINE
  8
Info
  6
CONTINUOUS
 62
11
 10
-527.65711867
 20
115.67526229
 30
0.00000000
 11
-527.57274367
 21
115.53776229
 31
0.00000000
  0
LINE
  8
Info
  6
CONTINUOUS
 62
11
 10
-527.57274367
 20
115.53776229
 30
0.00000000
 11
-527.53524367
 21
115.37526229
 31
0.00000000
  0
LINE
  8
Info
  6
CONTINUOUS
 62
11
 10
-527.53524367
 20
115.37526229
 30
0.00000000
 11
-527.53524367
 21
115.20026229
 31
0.00000000
  0
LINE
  8
Info
  6
CONTINUOUS
 62
11
 10
-527.53524367
 20
115.20026229
 30
0.00000000
 11
-527.57274367
 21
115.03776229
 31
0.00000000
  0
LINE
  8
Info
  6
CONTINUOUS
 62
11
 10
-527.57274367
 20
115.03776229
 30
0.00000000
 11
-527.65711867
 21
114.90026229
 31
0.00000000
  0
LINE
  8
Info
  6
CONTINUOUS
 62
11
 10
-527.65711867
 20
114.90026229
 30
0.00000000
 11
-527.76961867
 21
114.82526229
 31
0.00000000
  0
LINE
  8
Info
  6
CONTINUOUS
 62
11
 10
-527.76961867
 20
114.82526229
 30
0.00000000
 11
-527.90086867
 21
114.78776229
 31
0.00000000
  0
LINE
  8
Info
  6
CONTINUOUS
 62
11
 10
-527.90086867
 20
114.78776229
 30
0.00000000
 11
-528.57586867
 21
114.78776229
 31
0.00000000
  0
LINE
  8
Info
  6
CONTINUOUS
 62
11
 10
-526.34461867
 20
115.78776229
 30
0.00000000
 11
-526.34461867
 21
113.78776229
 31
0.00000000
  0
LINE
  8
Info
  6
CONTINUOUS
 62
11
 10
-524.02899367
 20
114.55026229
 30
0.00000000
 11
-524.10399367
 21
114.86276229
 31
0.00000000
  0
LINE
  8
Info
  6
CONTINUOUS
 62
11
 10
-524.10399367
 20
114.86276229
 30
0.00000000
 11
-524.31024367
 21
115.06276229
 31
0.00000000
  0
LINE
  8
Info
  6
CONTINUOUS
 62
11
 10
-524.31024367
 20
115.06276229
 30
0.00000000
 11
-524.56336867
 21
115.06276229
 31
0.00000000
  0
LINE
  8
Info
  6
CONTINUOUS
 62
11
 10
-524.56336867
 20
115.06276229
 30
0.00000000
 11
-524.76961867
 21
114.86276229
 31
0.00000000
  0
LINE
  8
Info
  6
CONTINUOUS
 62
11
 10
-524.76961867
 20
114.86276229
 30
0.00000000
 11
-524.84461867
 21
114.55026229
 31
0.00000000
  0
LINE
  8
Info
  6
CONTINUOUS
 62
11
 10
-524.84461867
 20
114.55026229
 30
0.00000000
 11
-524.84461867
 21
114.33776229
 31
0.00000000
  0
LINE
  8
Info
  6
CONTINUOUS
 62
11
 10
-524.84461867
 20
114.33776229
 30
0.00000000
 11
-524.76961867
 21
114.01276229
 31
0.00000000
  0
LINE
  8
Info
  6
CONTINUOUS
 62
11
 10
-524.76961867
 20
114.01276229
 30
0.00000000
 11
-524.56336867
 21
113.81276229
 31
0.00000000
  0
LINE
  8
Info
  6
CONTINUOUS
 62
11
 10
-524.56336867
 20
113.81276229
 30
0.00000000
 11
-524.31024367
 21
113.81276229
 31
0.00000000
  0
LINE
  8
Info
  6
CONTINUOUS
 62
11
 10
-524.31024367
 20
113.81276229
 30
0.00000000
 11
-524.10399367
 21
114.01276229
 31
0.00000000
  0
LINE
  8
Info
  6
CONTINUOUS
 62
11
 10
-524.10399367
 20
114.01276229
 30
0.00000000
 11
-524.02899367
 21
114.33776229
 31
0.00000000
  0
LINE
  8
Info
  6
CONTINUOUS
 62
11
 10
-524.02899367
 20
113.78776229
 30
0.00000000
 11
-524.02899367
 21
115.08776229
 31
0.00000000
  0
LINE
  8
Info
  6
CONTINUOUS
 62
11
 10
-522.32274367
 20
114.91276229
 30
0.00000000
 11
-522.40711867
 21
115.03776229
 31
0.00000000
  0
LINE
  8
Info
  6
CONTINUOUS
 62
11
 10
-522.40711867
 20
115.03776229
 30
0.00000000
 11
-522.52899367
 21
115.08776229
 31
0.00000000
  0
LINE
  8
Info
  6
CONTINUOUS
 62
11
 10
-522.52899367
 20
115.08776229
 30
0.00000000
 11
-522.78211867
 21
115.08776229
 31
0.00000000
  0
LINE
  8
Info
  6
CONTINUOUS
 62
11
 10
-522.78211867
 20
115.08776229
 30
0.00000000
 11
-522.90399367
 21
115.03776229
 31
0.00000000
  0
LINE
  8
Info
  6
CONTINUOUS
 62
11
 10
-522.90399367
 20
115.03776229
 30
0.00000000
 11
-522.98836867
 21
114.91276229
 31
0.00000000
  0
LINE
  8
Info
  6
CONTINUOUS
 62
11
 10
-522.98836867
 20
114.91276229
 30
0.00000000
 11
-523.00711867
 21
114.73776229
 31
0.00000000
  0
LINE
  8
Info
  6
CONTINUOUS
 62
11
 10
-523.00711867
 20
114.73776229
 30
0.00000000
 11
-522.94149367
 21
114.58776229
 31
0.00000000
  0
LINE
  8
Info
  6
CONTINUOUS
 62
11
 10
-522.94149367
 20
114.58776229
 30
0.00000000
 11
-522.83836867
 21
114.50026229
 31
0.00000000
  0
LINE
  8
Info
  6
CONTINUOUS
 62
11
 10
-522.83836867
 20
114.50026229
 30
0.00000000
 11
-522.46336867
 21
114.37526229
 31
0.00000000
  0
LINE
  8
Info
  6
CONTINUOUS
 62
11
 10
-522.46336867
 20
114.37526229
 30
0.00000000
 11
-522.36024367
 21
114.28776229
 31
0.00000000
  0
LINE
  8
Info
  6
CONTINUOUS
 62
11
 10
-522.36024367
 20
114.28776229
 30
0.00000000
 11
-522.29461867
 21
114.13776229
 31
0.00000000
  0
LINE
  8
Info
  6
CONTINUOUS
 62
11
 10
-522.29461867
 20
114.13776229
 30
0.00000000
 11
-522.31336867
 21
113.96276229
 31
0.00000000
  0
LINE
  8
Info
  6
CONTINUOUS
 62
11
 10
-522.31336867
 20
113.96276229
 30
0.00000000
 11
-522.39774367
 21
113.83776229
 31
0.00000000
  0
LINE
  8
Info
  6
CONTINUOUS
 62
11
 10
-522.39774367
 20
113.83776229
 30
0.00000000
 11
-522.51961867
 21
113.78776229
 31
0.00000000
  0
LINE
  8
Info
  6
CONTINUOUS
 62
11
 10
-522.51961867
 20
113.78776229
 30
0.00000000
 11
-522.77274367
 21
113.78776229
 31
0.00000000
  0
LINE
  8
Info
  6
CONTINUOUS
 62
11
 10
-522.77274367
 20
113.78776229
 30
0.00000000
 11
-522.90399367
 21
113.83776229
 31
0.00000000
  0
LINE
  8
Info
  6
CONTINUOUS
 62
11
 10
-522.90399367
 20
113.83776229
 30
0.00000000
 11
-522.98836867
 21
113.97526229
 31
0.00000000
  0
LINE
  8
Info
  6
CONTINUOUS
 62
11
 10
-521.37586867
 20
115.08776229
 30
0.00000000
 11
-521.37586867
 21
113.78776229
 31
0.00000000
  0
LINE
  8
Info
  6
CONTINUOUS
 62
11
 10
-521.37586867
 20
114.73776229
 30
0.00000000
 11
-521.30086867
 21
114.98776229
 31
0.00000000
  0
LINE
  8
Info
  6
CONTINUOUS
 62
11
 10
-521.30086867
 20
114.98776229
 30
0.00000000
 11
-521.11336867
 21
115.08776229
 31
0.00000000
  0
LINE
  8
Info
  6
CONTINUOUS
 62
11
 10
-521.11336867
 20
115.08776229
 30
0.00000000
 11
-520.92586867
 21
114.98776229
 31
0.00000000
  0
LINE
  8
Info
  6
CONTINUOUS
 62
11
 10
-520.92586867
 20
114.98776229
 30
0.00000000
 11
-520.85086867
 21
114.73776229
 31
0.00000000
  0
LINE
  8
Info
  6
CONTINUOUS
 62
11
 10
-520.85086867
 20
114.73776229
 30
0.00000000
 11
-520.77586867
 21
114.98776229
 31
0.00000000
  0
LINE
  8
Info
  6
CONTINUOUS
 62
11
 10
-520.77586867
 20
114.98776229
 30
0.00000000
 11
-520.58836867
 21
115.08776229
 31
0.00000000
  0
LINE
  8
Info
  6
CONTINUOUS
 62
11
 10
-520.58836867
 20
115.08776229
 30
0.00000000
 11
-520.40086867
 21
114.98776229
 31
0.00000000
  0
LINE
  8
Info
  6
CONTINUOUS
 62
11
 10
-520.40086867
 20
114.98776229
 30
0.00000000
 11
-520.32586867
 21
114.73776229
 31
0.00000000
  0
LINE
  8
Info
  6
CONTINUOUS
 62
11
 10
-520.32586867
 20
114.73776229
 30
0.00000000
 11
-520.32586867
 21
113.78776229
 31
0.00000000
  0
LINE
  8
Info
  6
CONTINUOUS
 62
11
 10
-520.85086867
 20
114.73776229
 30
0.00000000
 11
-520.85086867
 21
113.78776229
 31
0.00000000
  0
LINE
  8
Info
  6
CONTINUOUS
 62
11
 10
-518.62899367
 20
114.55026229
 30
0.00000000
 11
-518.70399367
 21
114.86276229
 31
0.00000000
  0
LINE
  8
Info
  6
CONTINUOUS
 62
11
 10
-518.70399367
 20
114.86276229
 30
0.00000000
 11
-518.91024367
 21
115.06276229
 31
0.00000000
  0
LINE
  8
Info
  6
CONTINUOUS
 62
11
 10
-518.91024367
 20
115.06276229
 30
0.00000000
 11
-519.16336867
 21
115.06276229
 31
0.00000000
  0
LINE
  8
Info
  6
CONTINUOUS
 62
11
 10
-519.16336867
 20
115.06276229
 30
0.00000000
 11
-519.36961867
 21
114.86276229
 31
0.00000000
  0
LINE
  8
Info
  6
CONTINUOUS
 62
11
 10
-519.36961867
 20
114.86276229
 30
0.00000000
 11
-519.44461867
 21
114.55026229
 31
0.00000000
  0
LINE
  8
Info
  6
CONTINUOUS
 62
11
 10
-519.44461867
 20
114.55026229
 30
0.00000000
 11
-519.44461867
 21
114.33776229
 31
0.00000000
  0
LINE
  8
Info
  6
CONTINUOUS
 62
11
 10
-519.44461867
 20
114.33776229
 30
0.00000000
 11
-519.36961867
 21
114.01276229
 31
0.00000000
  0
LINE
  8
Info
  6
CONTINUOUS
 62
11
 10
-519.36961867
 20
114.01276229
 30
0.00000000
 11
-519.16336867
 21
113.81276229
 31
0.00000000
  0
LINE
  8
Info
  6
CONTINUOUS
 62
11
 10
-519.16336867
 20
113.81276229
 30
0.00000000
 11
-518.91024367
 21
113.81276229
 31
0.00000000
  0
LINE
  8
Info
  6
CONTINUOUS
 62
11
 10
-518.91024367
 20
113.81276229
 30
0.00000000
 11
-518.70399367
 21
114.01276229
 31
0.00000000
  0
LINE
  8
Info
  6
CONTINUOUS
 62
11
 10
-518.70399367
 20
114.01276229
 30
0.00000000
 11
-518.62899367
 21
114.33776229
 31
0.00000000
  0
LINE
  8
Info
  6
CONTINUOUS
 62
11
 10
-518.62899367
 20
113.78776229
 30
0.00000000
 11
-518.62899367
 21
115.08776229
 31
0.00000000
  0
LINE
  8
Info
  6
CONTINUOUS
 62
11
 10
-514.92586867
 20
115.28776229
 30
0.00000000
 11
-514.94461867
 21
115.43776229
 31
0.00000000
  0
LINE
  8
Info
  6
CONTINUOUS
 62
11
 10
-514.94461867
 20
115.43776229
 30
0.00000000
 11
-514.99149367
 21
115.57526229
 31
0.00000000
  0
LINE
  8
Info
  6
CONTINUOUS
 62
11
 10
-514.99149367
 20
115.57526229
 30
0.00000000
 11
-515.06649367
 21
115.68776229
 31
0.00000000
  0
LINE
  8
Info
  6
CONTINUOUS
 62
11
 10
-515.06649367
 20
115.68776229
 30
0.00000000
 11
-515.16961867
 21
115.75026229
 31
0.00000000
  0
LINE
  8
Info
  6
CONTINUOUS
 62
11
 10
-515.16961867
 20
115.75026229
 30
0.00000000
 11
-515.28211867
 21
115.78776229
 31
0.00000000
  0
LINE
  8
Info
  6
CONTINUOUS
 62
11
 10
-515.28211867
 20
115.78776229
 30
0.00000000
 11
-515.61961867
 21
115.78776229
 31
0.00000000
  0
LINE
  8
Info
  6
CONTINUOUS
 62
11
 10
-515.61961867
 20
115.78776229
 30
0.00000000
 11
-515.73211867
 21
115.75026229
 31
0.00000000
  0
LINE
  8
Info
  6
CONTINUOUS
 62
11
 10
-515.73211867
 20
115.75026229
 30
0.00000000
 11
-515.83524367
 21
115.68776229
 31
0.00000000
  0
LINE
  8
Info
  6
CONTINUOUS
 62
11
 10
-515.83524367
 20
115.68776229
 30
0.00000000
 11
-515.91024367
 21
115.57526229
 31
0.00000000
  0
LINE
  8
Info
  6
CONTINUOUS
 62
11
 10
-515.91024367
 20
115.57526229
 30
0.00000000
 11
-515.95711867
 21
115.43776229
 31
0.00000000
  0
LINE
  8
Info
  6
CONTINUOUS
 62
11
 10
-515.95711867
 20
115.43776229
 30
0.00000000
 11
-515.97586867
 21
115.28776229
 31
0.00000000
  0
LINE
  8
Info
  6
CONTINUOUS
 62
11
 10
-515.97586867
 20
115.28776229
 30
0.00000000
 11
-515.97586867
 21
114.28776229
 31
0.00000000
  0
LINE
  8
Info
  6
CONTINUOUS
 62
11
 10
-515.97586867
 20
114.28776229
 30
0.00000000
 11
-515.95711867
 21
114.13776229
 31
0.00000000
  0
LINE
  8
Info
  6
CONTINUOUS
 62
11
 10
-515.95711867
 20
114.13776229
 30
0.00000000
 11
-515.91024367
 21
114.00026229
 31
0.00000000
  0
LINE
  8
Info
  6
CONTINUOUS
 62
11
 10
-515.91024367
 20
114.00026229
 30
0.00000000
 11
-515.83524367
 21
113.88776229
 31
0.00000000
  0
LINE
  8
Info
  6
CONTINUOUS
 62
11
 10
-515.83524367
 20
113.88776229
 30
0.00000000
 11
-515.73211867
 21
113.81276229
 31
0.00000000
  0
LINE
  8
Info
  6
CONTINUOUS
 62
11
 10
-515.73211867
 20
113.81276229
 30
0.00000000
 11
-515.61961867
 21
113.78776229
 31
0.00000000
  0
LINE
  8
Info
  6
CONTINUOUS
 62
11
 10
-515.61961867
 20
113.78776229
 30
0.00000000
 11
-515.28211867
 21
113.78776229
 31
0.00000000
  0
LINE
  8
Info
  6
CONTINUOUS
 62
11
 10
-515.28211867
 20
113.78776229
 30
0.00000000
 11
-515.16961867
 21
113.81276229
 31
0.00000000
  0
LINE
  8
Info
  6
CONTINUOUS
 62
11
 10
-515.16961867
 20
113.81276229
 30
0.00000000
 11
-515.06649367
 21
113.88776229
 31
0.00000000
  0
LINE
  8
Info
  6
CONTINUOUS
 62
11
 10
-515.06649367
 20
113.88776229
 30
0.00000000
 11
-514.99149367
 21
114.00026229
 31
0.00000000
  0
LINE
  8
Info
  6
CONTINUOUS
 62
11
 10
-514.99149367
 20
114.00026229
 30
0.00000000
 11
-514.94461867
 21
114.13776229
 31
0.00000000
  0
LINE
  8
Info
  6
CONTINUOUS
 62
11
 10
-514.94461867
 20
114.13776229
 30
0.00000000
 11
-514.92586867
 21
114.28776229
 31
0.00000000
  0
LINE
  8
Info
  6
CONTINUOUS
 62
11
 10
-514.04461867
 20
115.08776229
 30
0.00000000
 11
-514.04461867
 21
114.31276229
 31
0.00000000
  0
LINE
  8
Info
  6
CONTINUOUS
 62
11
 10
-514.04461867
 20
114.31276229
 30
0.00000000
 11
-513.96961867
 21
114.00026229
 31
0.00000000
  0
LINE
  8
Info
  6
CONTINUOUS
 62
11
 10
-513.96961867
 20
114.00026229
 30
0.00000000
 11
-513.77274367
 21
113.81276229
 31
0.00000000
  0
LINE
  8
Info
  6
CONTINUOUS
 62
11
 10
-513.77274367
 20
113.81276229
 30
0.00000000
 11
-513.52899367
 21
113.81276229
 31
0.00000000
  0
LINE
  8
Info
  6
CONTINUOUS
 62
11
 10
-513.52899367
 20
113.81276229
 30
0.00000000
 11
-513.33211867
 21
114.00026229
 31
0.00000000
  0
LINE
  8
Info
  6
CONTINUOUS
 62
11
 10
-513.33211867
 20
114.00026229
 30
0.00000000
 11
-513.25711867
 21
114.31276229
 31
0.00000000
  0
LINE
  8
Info
  6
CONTINUOUS
 62
11
 10
-513.25711867
 20
115.08776229
 30
0.00000000
 11
-513.25711867
 21
113.78776229
 31
0.00000000
  0
LINE
  8
Info
  6
CONTINUOUS
 62
11
 10
-511.94461867
 20
113.78776229
 30
0.00000000
 11
-511.94461867
 21
115.78776229
 31
0.00000000
  0
LINE
  8
Info
  6
CONTINUOUS
 62
11
 10
-512.24461867
 20
115.08776229
 30
0.00000000
 11
-511.47586867
 21
115.08776229
 31
0.00000000
  0
LINE
  8
Info
  6
CONTINUOUS
 62
11
 10
-510.14461867
 20
113.78776229
 30
0.00000000
 11
-510.14461867
 21
115.78776229
 31
0.00000000
  0
LINE
  8
Info
  6
CONTINUOUS
 62
11
 10
-510.44461867
 20
115.08776229
 30
0.00000000
 11
-509.67586867
 21
115.08776229
 31
0.00000000
  0
LINE
  8
Info
  6
CONTINUOUS
 62
11
 10
-508.25086867
 20
115.78776229
 30
0.00000000
 11
-508.25086867
 21
115.48776229
 31
0.00000000
  0
LINE
  8
Info
  6
CONTINUOUS
 62
11
 10
-508.25086867
 20
115.08776229
 30
0.00000000
 11
-508.25086867
 21
113.78776229
 31
0.00000000
  0
LINE
  8
Info
  6
CONTINUOUS
 62
11
 10
-506.84461867
 20
115.08776229
 30
0.00000000
 11
-506.84461867
 21
113.78776229
 31
0.00000000
  0
LINE
  8
Info
  6
CONTINUOUS
 62
11
 10
-506.84461867
 20
114.56276229
 30
0.00000000
 11
-506.76961867
 21
114.87526229
 31
0.00000000
  0
LINE
  8
Info
  6
CONTINUOUS
 62
11
 10
-506.76961867
 20
114.87526229
 30
0.00000000
 11
-506.57274367
 21
115.06276229
 31
0.00000000
  0
LINE
  8
Info
  6
CONTINUOUS
 62
11
 10
-506.57274367
 20
115.06276229
 30
0.00000000
 11
-506.32899367
 21
115.06276229
 31
0.00000000
  0
LINE
  8
Info
  6
CONTINUOUS
 62
11
 10
-506.32899367
 20
115.06276229
 30
0.00000000
 11
-506.13211867
 21
114.87526229
 31
0.00000000
  0
LINE
  8
Info
  6
CONTINUOUS
 62
11
 10
-506.13211867
 20
114.87526229
 30
0.00000000
 11
-506.05711867
 21
114.56276229
 31
0.00000000
  0
LINE
  8
Info
  6
CONTINUOUS
 62
11
 10
-506.05711867
 20
114.56276229
 30
0.00000000
 11
-506.05711867
 21
113.78776229
 31
0.00000000
  0
LINE
  8
Info
  6
CONTINUOUS
 62
11
 10
-504.25711867
 20
114.56276229
 30
0.00000000
 11
-504.33211867
 21
114.87526229
 31
0.00000000
  0
LINE
  8
Info
  6
CONTINUOUS
 62
11
 10
-504.33211867
 20
114.87526229
 30
0.00000000
 11
-504.52899367
 21
115.06276229
 31
0.00000000
  0
LINE
  8
Info
  6
CONTINUOUS
 62
11
 10
-504.52899367
 20
115.06276229
 30
0.00000000
 11
-504.77274367
 21
115.06276229
 31
0.00000000
  0
LINE
  8
Info
  6
CONTINUOUS
 62
11
 10
-504.77274367
 20
115.06276229
 30
0.00000000
 11
-504.96961867
 21
114.87526229
 31
0.00000000
  0
LINE
  8
Info
  6
CONTINUOUS
 62
11
 10
-504.96961867
 20
114.87526229
 30
0.00000000
 11
-505.04461867
 21
114.56276229
 31
0.00000000
  0
LINE
  8
Info
  6
CONTINUOUS
 62
11
 10
-505.04461867
 20
114.56276229
 30
0.00000000
 11
-505.04461867
 21
114.31276229
 31
0.00000000
  0
LINE
  8
Info
  6
CONTINUOUS
 62
11
 10
-505.04461867
 20
114.31276229
 30
0.00000000
 11
-504.96961867
 21
114.00026229
 31
0.00000000
  0
LINE
  8
Info
  6
CONTINUOUS
 62
11
 10
-504.96961867
 20
114.00026229
 30
0.00000000
 11
-504.77274367
 21
113.81276229
 31
0.00000000
  0
LINE
  8
Info
  6
CONTINUOUS
 62
11
 10
-504.77274367
 20
113.81276229
 30
0.00000000
 11
-504.52899367
 21
113.81276229
 31
0.00000000
  0
LINE
  8
Info
  6
CONTINUOUS
 62
11
 10
-504.52899367
 20
113.81276229
 30
0.00000000
 11
-504.33211867
 21
114.00026229
 31
0.00000000
  0
LINE
  8
Info
  6
CONTINUOUS
 62
11
 10
-504.33211867
 20
114.00026229
 30
0.00000000
 11
-504.25711867
 21
114.31276229
 31
0.00000000
  0
LINE
  8
Info
  6
CONTINUOUS
 62
11
 10
-504.25711867
 20
115.08776229
 30
0.00000000
 11
-504.25711867
 21
113.51276229
 31
0.00000000
  0
LINE
  8
Info
  6
CONTINUOUS
 62
11
 10
-504.25711867
 20
113.51276229
 30
0.00000000
 11
-504.31336867
 21
113.23776229
 31
0.00000000
  0
LINE
  8
Info
  6
CONTINUOUS
 62
11
 10
-504.31336867
 20
113.23776229
 30
0.00000000
 11
-504.46336867
 21
113.05026229
 31
0.00000000
  0
LINE
  8
Info
  6
CONTINUOUS
 62
11
 10
-504.46336867
 20
113.05026229
 30
0.00000000
 11
-504.66961867
 21
112.98776229
 31
0.00000000
  0
LINE
  8
Info
  6
CONTINUOUS
 62
11
 10
-504.66961867
 20
112.98776229
 30
0.00000000
 11
-504.86649367
 21
113.07526229
 31
0.00000000
  0
LINE
  8
Info
  6
CONTINUOUS
 62
11
 10
-504.86649367
 20
113.07526229
 30
0.00000000
 11
-505.00711867
 21
113.28776229
 31
0.00000000
   0
ENDSEC
   0
EOF
